<svg width="30" height="30" viewBox="0 0 30 30" fill="none" xmlns="http://www.w3.org/2000/svg">
<path d="M15 0C6.72345 0 0 6.72345 0 15C0 23.2765 6.72345 30 15 30C23.2765 30 30 23.2765 30 15C30 6.72345 23.2765 0 15 0ZM15 1.30435C22.5716 1.30435 28.6957 7.42838 28.6957 15C28.6957 22.5716 22.5716 28.6957 15 28.6957C7.42838 28.6957 1.30435 22.5716 1.30435 15C1.30435 7.42838 7.42838 1.30435 15 1.30435ZM14.3478 7.17391V14.3478H7.17391V15.6522H14.3478V22.8261H15.6522V15.6522H22.8261V14.3478H15.6522V7.17391H14.3478Z" fill="#11484F"/>
</svg>
