<svg width="58" height="58" viewBox="0 0 58 58" fill="none" xmlns="http://www.w3.org/2000/svg">
<g filter="url(#filter0_d_346_684)">
<g filter="url(#filter1_di_346_684)">
<path d="M4 12.0401L28.6667 0L54 12.0401V41.3043L28.6667 50L4 41.3043V12.0401Z" fill="#C0C0C0"/>
<path d="M4.5 40.9505V12.3525L28.6696 0.554973L53.5 12.3561V40.9473L28.6689 49.4706L4.5 40.9505Z" stroke="black"/>
</g>
<g filter="url(#filter2_di_346_684)">
<path d="M10.709 15.9699L28.959 8.27759L47.2923 15.9699V36.5385L28.959 41.7224L10.709 36.5385V15.9699Z" fill="#C0C0C0"/>
<path d="M11.209 36.1607V16.3017L28.9594 8.82L46.7923 16.3023V36.1602L28.9593 41.2027L11.209 36.1607Z" stroke="black"/>
</g>
<path d="M27.9126 19.4264C25.5374 21.1295 23.6554 24.0536 26.0403 26.3408C27.7316 26.7143 28.7083 26.4391 30.4751 25.5189C31.7591 24.2995 32.0774 23.4619 31.6977 21.5866C31.6452 20.3514 31.5329 19.5112 31.198 17.7889L27.9126 19.4264Z" fill="#514715" stroke="black"/>
<path d="M33.6071 25.1796C30.8864 24.0687 27.3406 23.9954 26.5441 27.1598C27.0814 28.7639 27.8249 29.4386 29.5427 30.4427C31.2772 30.8902 32.1797 30.7267 33.6405 29.4484C34.7038 28.7714 35.3879 28.247 36.7365 27.0844L33.6071 25.1796Z" fill="#514715" stroke="black"/>
<path d="M23.3003 23.6097C22.1376 26.2477 22.0354 29.6963 25.2822 30.4951C26.9353 29.9846 27.6345 29.2666 28.6798 27.6032C29.153 25.9194 28.9918 25.0403 27.6888 23.6097C27.001 22.5702 26.467 21.9007 25.2822 20.5801L23.3003 23.6097Z" fill="#5A5940" stroke="black"/>
<line y1="-0.5" x2="6.40292" y2="-0.5" transform="matrix(0.970474 -0.241207 0.239695 0.970848 20.4766 23.8843)" stroke="black"/>
<line y1="-0.5" x2="5.00971" y2="-0.5" transform="matrix(-0.515037 -0.857168 0.855644 -0.517565 31.4844 19.793)" stroke="black"/>
<line y1="-0.5" x2="3.69501" y2="-0.5" transform="matrix(0.92262 -0.38571 0.383523 0.923532 31.5557 20.0596)" stroke="black"/>
<line y1="-0.5" x2="3.55892" y2="-0.5" transform="matrix(0.367633 0.929971 -0.929128 0.369759 31.5557 20.0596)" stroke="black"/>
<line y1="-0.5" x2="5.78216" y2="-0.5" transform="matrix(0.350315 -0.936632 0.935861 0.352371 26.7266 21.8647)" stroke="black"/>
<line y1="-0.5" x2="5.00754" y2="-0.5" transform="matrix(0.628714 0.777637 -0.775579 0.631251 26.5371 22.4346)" stroke="black"/>
<line y1="-0.5" x2="4.11435" y2="-0.5" transform="matrix(-0.690487 0.723345 -0.721038 -0.692896 29.5664 26.3303)" stroke="black"/>
<line y1="-0.5" x2="4.59386" y2="-0.5" transform="matrix(0.989464 0.144779 -0.143836 0.989602 32.9766 23.385)" stroke="black"/>
<line y1="-0.5" x2="5.01071" y2="-0.5" transform="matrix(0.453574 -0.891219 0.889989 0.455982 32.9766 23.0999)" stroke="black"/>
<line y1="-0.5" x2="4.94134" y2="-0.5" transform="matrix(0.977376 0.211511 -0.210166 0.977666 27.1992 29.7507)" stroke="black"/>
<line y1="-0.5" x2="4.27574" y2="-0.5" transform="matrix(0.724888 -0.688867 0.686447 0.72718 29.8516 26.3303)" stroke="black"/>
<line y1="-0.5" x2="6.31526" y2="-0.5" transform="matrix(-0.269909 0.962886 -0.962415 -0.271584 31.5557 19.7744)" stroke="black"/>
<line y1="-0.5" x2="7.02009" y2="-0.5" transform="matrix(0.941654 0.336583 -0.334595 0.942362 30.0244 26.5579)" stroke="black"/>
<line y1="-0.5" x2="5.01071" y2="-0.5" transform="matrix(0.453574 0.891219 -0.889989 0.455982 29.7559 26.3303)" stroke="black"/>
<line y1="-0.5" x2="4.77818" y2="-0.5" transform="matrix(0.971113 -0.238619 0.237121 0.97148 32.0293 30.7009)" stroke="black"/>
<line y1="-0.5" x2="4.38651" y2="-0.5" transform="matrix(0.626059 -0.779776 0.77773 0.628599 29.2832 34.2163)" stroke="black"/>
<line y1="-0.5" x2="4.98256" y2="-0.5" transform="matrix(0.988295 0.152554 -0.151562 0.988448 21.3281 28.8955)" stroke="black"/>
<line y1="-0.5" x2="3.67735" y2="-0.5" transform="matrix(0.488207 0.872728 -0.871334 0.490691 24.7373 19.1094)" stroke="black"/>
<line y1="-0.5" x2="1.82089" y2="-0.5" transform="matrix(0.840474 0.541852 -0.539298 0.842115 22.748 18.1592)" stroke="black"/>
<line y1="-0.5" x2="6.4493" y2="-0.5" transform="matrix(-0.748658 0.662957 -0.660474 -0.750849 24.7363 19.1094)" stroke="black"/>
<line y1="-0.5" x2="5.31837" y2="-0.5" transform="matrix(-0.416629 -0.909077 0.908018 -0.418931 28.9414 34.4907)" stroke="black"/>
<ellipse cx="26.536" cy="22.3398" rx="0.473485" ry="0.475068" fill="#514715"/>
<ellipse cx="31.5555" cy="20.0595" rx="0.473485" ry="0.475068" fill="#514715"/>
<ellipse cx="32.9754" cy="23.2898" rx="0.473485" ry="0.475068" fill="#514715"/>
<ellipse cx="29.7567" cy="26.3303" rx="0.473485" ry="0.475068" fill="#514715"/>
<ellipse cx="32.0291" cy="30.7959" rx="0.473485" ry="0.475068" fill="#514715"/>
<ellipse cx="26.7254" cy="29.6557" rx="0.473485" ry="0.475068" fill="#514715"/>
<ellipse cx="24.7372" cy="19.1093" rx="0.473485" ry="0.475068" fill="#5A5940"/>
<path d="M37.9687 25.0001C37.9687 29.973 33.9512 34.0015 28.999 34.0015C24.0467 34.0015 20.0293 29.973 20.0293 25.0001C20.0293 20.0273 24.0467 15.9988 28.999 15.9988C33.9512 15.9988 37.9687 20.0273 37.9687 25.0001Z" stroke="black"/>
<ellipse cx="22.2751" cy="18.1591" rx="0.94697" ry="0.950136" fill="#5A5940"/>
<ellipse cx="28.904" cy="15.4987" rx="0.94697" ry="0.950136" fill="#514715"/>
<ellipse cx="35.6276" cy="18.1591" rx="0.94697" ry="0.950136" fill="#5A5940"/>
<ellipse cx="38.4685" cy="24.05" rx="0.94697" ry="0.950136" fill="#5A5940"/>
<ellipse cx="37.5212" cy="29.1806" rx="0.94697" ry="0.950136" fill="#5A5940"/>
<ellipse cx="28.904" cy="34.5014" rx="0.94697" ry="0.950136" fill="#514715"/>
<ellipse cx="20.4763" cy="28.8007" rx="0.94697" ry="0.950136" fill="#5A5940"/>
<line y1="-0.5" x2="8.26749" y2="-0.5" transform="matrix(0.80179 0.597607 -0.595041 0.803695 19.9082 24.335)" stroke="black"/>
<ellipse cx="19.529" cy="24.05" rx="0.94697" ry="0.950136" fill="#5A5940"/>
</g>
<defs>
<filter id="filter0_d_346_684" x="0" y="0" width="58" height="58" filterUnits="userSpaceOnUse" color-interpolation-filters="sRGB">
<feFlood flood-opacity="0" result="BackgroundImageFix"/>
<feColorMatrix in="SourceAlpha" type="matrix" values="0 0 0 0 0 0 0 0 0 0 0 0 0 0 0 0 0 0 127 0" result="hardAlpha"/>
<feOffset dy="4"/>
<feGaussianBlur stdDeviation="2"/>
<feComposite in2="hardAlpha" operator="out"/>
<feColorMatrix type="matrix" values="0 0 0 0 0 0 0 0 0 0 0 0 0 0 0 0 0 0 0.25 0"/>
<feBlend mode="normal" in2="BackgroundImageFix" result="effect1_dropShadow_346_684"/>
<feBlend mode="normal" in="SourceGraphic" in2="effect1_dropShadow_346_684" result="shape"/>
</filter>
<filter id="filter1_di_346_684" x="0" y="0" width="58" height="58" filterUnits="userSpaceOnUse" color-interpolation-filters="sRGB">
<feFlood flood-opacity="0" result="BackgroundImageFix"/>
<feColorMatrix in="SourceAlpha" type="matrix" values="0 0 0 0 0 0 0 0 0 0 0 0 0 0 0 0 0 0 127 0" result="hardAlpha"/>
<feOffset dy="4"/>
<feGaussianBlur stdDeviation="2"/>
<feComposite in2="hardAlpha" operator="out"/>
<feColorMatrix type="matrix" values="0 0 0 0 0 0 0 0 0 0 0 0 0 0 0 0 0 0 0.25 0"/>
<feBlend mode="normal" in2="BackgroundImageFix" result="effect1_dropShadow_346_684"/>
<feBlend mode="normal" in="SourceGraphic" in2="effect1_dropShadow_346_684" result="shape"/>
<feColorMatrix in="SourceAlpha" type="matrix" values="0 0 0 0 0 0 0 0 0 0 0 0 0 0 0 0 0 0 127 0" result="hardAlpha"/>
<feOffset dx="10" dy="10"/>
<feGaussianBlur stdDeviation="2"/>
<feComposite in2="hardAlpha" operator="arithmetic" k2="-1" k3="1"/>
<feColorMatrix type="matrix" values="0 0 0 0 0 0 0 0 0 0 0 0 0 0 0 0 0 0 0.25 0"/>
<feBlend mode="normal" in2="shape" result="effect2_innerShadow_346_684"/>
</filter>
<filter id="filter2_di_346_684" x="6.70898" y="8.27759" width="44.583" height="41.4448" filterUnits="userSpaceOnUse" color-interpolation-filters="sRGB">
<feFlood flood-opacity="0" result="BackgroundImageFix"/>
<feColorMatrix in="SourceAlpha" type="matrix" values="0 0 0 0 0 0 0 0 0 0 0 0 0 0 0 0 0 0 127 0" result="hardAlpha"/>
<feOffset dy="4"/>
<feGaussianBlur stdDeviation="2"/>
<feComposite in2="hardAlpha" operator="out"/>
<feColorMatrix type="matrix" values="0 0 0 0 0 0 0 0 0 0 0 0 0 0 0 0 0 0 0.25 0"/>
<feBlend mode="normal" in2="BackgroundImageFix" result="effect1_dropShadow_346_684"/>
<feBlend mode="normal" in="SourceGraphic" in2="effect1_dropShadow_346_684" result="shape"/>
<feColorMatrix in="SourceAlpha" type="matrix" values="0 0 0 0 0 0 0 0 0 0 0 0 0 0 0 0 0 0 127 0" result="hardAlpha"/>
<feOffset dx="10" dy="10"/>
<feGaussianBlur stdDeviation="2"/>
<feComposite in2="hardAlpha" operator="arithmetic" k2="-1" k3="1"/>
<feColorMatrix type="matrix" values="0 0 0 0 0 0 0 0 0 0 0 0 0 0 0 0 0 0 0.25 0"/>
<feBlend mode="normal" in2="shape" result="effect2_innerShadow_346_684"/>
</filter>
</defs>
</svg>
