<svg width="26" height="28" viewBox="0 0 26 28" fill="none" xmlns="http://www.w3.org/2000/svg">
<path d="M10.6 0.199951V1.99995H11.8V2.65855C5.41021 3.26441 0.400024 8.65324 0.400024 15.2C0.400024 22.1516 6.04834 27.8 13 27.8C19.9517 27.8 25.6 22.1516 25.6 15.2C25.6 8.65324 20.5898 3.26441 14.2 2.65855V1.99995H15.4V0.199951H10.6ZM22.1418 2.08784L20.9383 3.29136L23.7074 6.0605L24.911 4.85698L22.1418 2.08784ZM13 3.79995C19.3032 3.79995 24.4 8.8968 24.4 15.2C24.4 21.5031 19.3032 26.6 13 26.6C6.69687 26.6 1.60002 21.5031 1.60002 15.2C1.60002 8.8968 6.69687 3.79995 13 3.79995ZM6.99417 8.59409C6.87481 8.59412 6.75817 8.62975 6.65916 8.69642C6.56015 8.76309 6.48328 8.85777 6.43837 8.96835C6.39345 9.07894 6.38254 9.20041 6.40702 9.31723C6.4315 9.43406 6.49027 9.54092 6.57581 9.62417L11.8422 14.8906C11.8147 14.9914 11.8006 15.0954 11.8 15.2C11.8 15.5182 11.9265 15.8234 12.1515 16.0485C12.3765 16.2735 12.6818 16.4 13 16.4C13.1049 16.3999 13.2093 16.3861 13.3106 16.3589L14.3758 17.4242C14.4311 17.4818 14.4973 17.5277 14.5706 17.5594C14.6439 17.5911 14.7227 17.6078 14.8026 17.6086C14.8824 17.6094 14.9616 17.5943 15.0355 17.5641C15.1094 17.534 15.1765 17.4893 15.233 17.4329C15.2894 17.3764 15.334 17.3093 15.3642 17.2354C15.3944 17.1615 15.4095 17.0823 15.4087 17.0025C15.4079 16.9227 15.3911 16.8438 15.3595 16.7705C15.3278 16.6972 15.2818 16.631 15.2242 16.5757L14.1578 15.5093C14.1853 15.4085 14.1995 15.3045 14.2 15.2C14.2 14.8817 14.0736 14.5765 13.8486 14.3514C13.6235 14.1264 13.3183 14 13 14C12.8952 14 12.7908 14.0138 12.6895 14.041L7.42424 8.77573C7.36833 8.71826 7.30146 8.67257 7.22759 8.64137C7.15373 8.61017 7.07435 8.5941 6.99417 8.59409Z" fill="black"/>
</svg>
