<svg width="100" height="100" viewBox="0 0 100 100" fill="none" xmlns="http://www.w3.org/2000/svg">
<path d="M44.7859 23.3362C33.3853 31.4837 24.3513 45.4727 35.799 56.4145C43.9174 58.2011 48.6052 56.8847 57.0859 52.4824C63.2492 46.6491 64.777 42.6421 62.9547 33.6703C62.7024 27.7613 62.1635 23.7417 60.5558 15.5023L44.7859 23.3362Z" fill="#11484F" stroke="black"/>
<path d="M72.119 50.8583C59.0596 45.5436 42.0397 45.1932 38.2167 60.3314C40.7955 68.0055 44.3642 71.2332 52.6099 76.0368C60.9353 78.1777 65.2672 77.3957 72.279 71.2803C77.3831 68.0415 80.6668 65.5325 87.1401 59.971L72.119 50.8583Z" fill="#11484F" stroke="black"/>
<path d="M22.6465 43.3482C17.0656 55.9687 16.5749 72.4666 32.1596 76.288C40.0944 73.8462 43.4506 70.4109 48.4678 62.4533C50.7392 54.3982 49.9655 50.1926 43.7112 43.3482C40.4095 38.3753 37.8466 35.1727 32.1596 28.8547L22.6465 43.3482Z" fill="#2F531C" stroke="black"/>
<line x1="8.9706" y1="44.176" x2="38.7972" y2="36.7875" stroke="#D9D9D9"/>
<line x1="61.5022" y1="25.347" x2="49.1173" y2="4.8037" stroke="#D9D9D9"/>
<line x1="62.0804" y1="25.902" x2="78.444" y2="19.0838" stroke="#D9D9D9"/>
<line x1="62.7375" y1="26.1792" x2="69.0177" y2="42.0128" stroke="#D9D9D9"/>
<line x1="38.6227" y1="34.8243" x2="48.3455" y2="8.9153" stroke="#D9D9D9"/>
<line x1="38.5702" y1="37.4123" x2="53.6821" y2="56.0414" stroke="#D9D9D9"/>
<line x1="53.0884" y1="56.7094" x2="39.452" y2="70.947" stroke="#D9D9D9"/>
<line x1="69.163" y1="41.7779" x2="90.9812" y2="44.9598" stroke="#D9D9D9"/>
<line x1="68.6455" y1="40.6818" x2="79.5546" y2="19.3182" stroke="#D9D9D9"/>
<line x1="41.4689" y1="72.2385" x2="64.6508" y2="77.2385" stroke="#D9D9D9"/>
<line x1="53.747" y1="56.0005" x2="68.6243" y2="41.9096" stroke="#D9D9D9"/>
<line x1="62.754" y1="25.1354" x2="54.5722" y2="54.2263" stroke="#D9D9D9"/>
<line x1="55.0919" y1="56.9811" x2="86.8223" y2="68.285" stroke="#D9D9D9"/>
<line x1="54.0818" y1="56.1361" x2="64.9909" y2="77.4998" stroke="#D9D9D9"/>
<line x1="64.4265" y1="76.7871" x2="86.6992" y2="71.3325" stroke="#D9D9D9"/>
<line x1="50.9741" y1="93.7772" x2="64.156" y2="77.4135" stroke="#D9D9D9"/>
<line x1="13.2579" y1="68.1423" x2="36.8943" y2="71.7786" stroke="#D9D9D9"/>
<line x1="29.9814" y1="21.5734" x2="38.5989" y2="36.9268" stroke="#D9D9D9"/>
<line x1="20.2703" y1="16.8521" x2="27.6163" y2="21.5722" stroke="#D9D9D9"/>
<line x1="29.8704" y1="22.193" x2="6.69447" y2="42.6475" stroke="#D9D9D9"/>
<line x1="49.2723" y1="95.6112" x2="38.6365" y2="72.4815" stroke="#D9D9D9"/>
<circle cx="38.1819" cy="37.2727" r="2.27273" fill="#11484F"/>
<circle cx="62.2727" cy="26.3635" r="2.27273" fill="#11484F"/>
<circle cx="69.0908" cy="41.8181" r="2.27273" fill="#11484F"/>
<circle cx="53.6363" cy="56.3635" r="2.27273" fill="#11484F"/>
<circle cx="64.5454" cy="77.7273" r="2.27273" fill="#11484F"/>
<circle cx="39.0908" cy="72.2727" r="2.27273" fill="#11484F"/>
<circle cx="29.5454" cy="21.8181" r="2.27273" fill="#2F531C"/>
<circle cx="50" cy="50" r="44.9545" stroke="#D9D9D9"/>
<circle cx="17.7273" cy="17.2727" r="4.54545" fill="#2F531C"/>
<circle cx="49.5455" cy="4.54545" r="4.54545" fill="#11484F"/>
<circle cx="81.8182" cy="17.2727" r="4.54545" fill="#2F531C"/>
<circle cx="95.4546" cy="45.4546" r="4.54545" fill="#2F531C"/>
<circle cx="90.909" cy="70" r="4.54545" fill="#2F531C"/>
<circle cx="49.5455" cy="95.4546" r="4.54545" fill="#11484F"/>
<circle cx="9.09086" cy="68.1819" r="4.54545" fill="#2F531C"/>
<line x1="6.66169" y1="46.4167" x2="38.4799" y2="70.0531" stroke="#D9D9D9"/>
<circle cx="4.54545" cy="45.4546" r="4.54545" fill="#2F531C"/>
</svg>
