<svg width="58" height="58" viewBox="0 0 58 58" fill="none" xmlns="http://www.w3.org/2000/svg">
<g filter="url(#filter0_di_346_731)">
<path d="M4 12.0401L28.6667 0L54 12.0401V41.3043L28.6667 50L4 41.3043V12.0401Z" fill="#CD7F32"/>
<path d="M4.5 40.9505V12.3525L28.6696 0.554973L53.5 12.3561V40.9473L28.6689 49.4706L4.5 40.9505Z" stroke="black"/>
</g>
<g filter="url(#filter1_di_346_731)">
<path d="M10.708 15.9699L28.958 8.27759L47.2913 15.9699V36.5385L28.958 41.7224L10.708 36.5385V15.9699Z" fill="#CD7F32"/>
<path d="M11.208 36.1607V16.3017L28.9585 8.82L46.7913 16.3023V36.1602L28.9583 41.2027L11.208 36.1607Z" stroke="black"/>
</g>
<path d="M27.9136 19.4264C25.5384 21.1295 23.6563 24.0536 26.0413 26.3408C27.7326 26.7143 28.7092 26.4391 30.476 25.5189C31.7601 24.2995 32.0784 23.4619 31.6987 21.5866C31.6462 20.3514 31.5339 19.5112 31.1989 17.7889L27.9136 19.4264Z" fill="#514715" stroke="black"/>
<path d="M33.6081 25.1794C30.8874 24.0684 27.3416 23.9952 26.5451 27.1595C27.0824 28.7637 27.8258 29.4383 29.5437 30.4424C31.2782 30.8899 32.1806 30.7265 33.6414 29.4482C34.7048 28.7712 35.3889 28.2467 36.7375 27.0842L33.6081 25.1794Z" fill="#514715" stroke="black"/>
<path d="M23.3013 23.6097C22.1386 26.2477 22.0364 29.6963 25.2832 30.4951C26.9363 29.9846 27.6355 29.2666 28.6807 27.6032C29.154 25.9194 28.9928 25.0403 27.6898 23.6097C27.0019 22.5702 26.468 21.9007 25.2832 20.5801L23.3013 23.6097Z" fill="#5A5940" stroke="black"/>
<line y1="-0.5" x2="6.40292" y2="-0.5" transform="matrix(0.970474 -0.241207 0.239695 0.970848 20.4766 23.884)" stroke="black"/>
<line y1="-0.5" x2="5.00971" y2="-0.5" transform="matrix(-0.515036 -0.857168 0.855644 -0.517565 31.4854 19.793)" stroke="black"/>
<line y1="-0.5" x2="3.69501" y2="-0.5" transform="matrix(0.92262 -0.38571 0.383522 0.923532 31.5566 20.0593)" stroke="black"/>
<line y1="-0.5" x2="3.55892" y2="-0.5" transform="matrix(0.367633 0.929971 -0.929128 0.369759 31.5566 20.0593)" stroke="black"/>
<line y1="-0.5" x2="5.78217" y2="-0.5" transform="matrix(0.350315 -0.936632 0.93586 0.352371 26.7266 21.8645)" stroke="black"/>
<line y1="-0.5" x2="5.00754" y2="-0.5" transform="matrix(0.628714 0.777637 -0.775579 0.631251 26.5371 22.4346)" stroke="black"/>
<line y1="-0.5" x2="4.11435" y2="-0.5" transform="matrix(-0.690487 0.723344 -0.721038 -0.692895 29.5684 26.3303)" stroke="black"/>
<line y1="-0.5" x2="4.59386" y2="-0.5" transform="matrix(0.989464 0.144779 -0.143836 0.989602 32.9766 23.385)" stroke="black"/>
<line y1="-0.5" x2="5.01071" y2="-0.5" transform="matrix(0.453574 -0.891219 0.889989 0.455982 32.9766 23.0999)" stroke="black"/>
<line y1="-0.5" x2="4.94134" y2="-0.5" transform="matrix(0.977376 0.211511 -0.210166 0.977666 27.2002 29.7507)" stroke="black"/>
<line y1="-0.5" x2="4.27574" y2="-0.5" transform="matrix(0.724888 -0.688867 0.686447 0.72718 29.8516 26.3303)" stroke="black"/>
<line y1="-0.5" x2="6.31526" y2="-0.5" transform="matrix(-0.269909 0.962886 -0.962415 -0.271584 31.5566 19.7744)" stroke="black"/>
<line y1="-0.5" x2="7.02009" y2="-0.5" transform="matrix(0.941654 0.336582 -0.334595 0.942362 30.0254 26.5579)" stroke="black"/>
<line y1="-0.5" x2="5.01071" y2="-0.5" transform="matrix(0.453574 0.891219 -0.889989 0.455982 29.7578 26.3303)" stroke="black"/>
<line y1="-0.5" x2="4.77818" y2="-0.5" transform="matrix(0.971113 -0.238619 0.237121 0.97148 32.0303 30.7009)" stroke="black"/>
<line y1="-0.5" x2="4.38651" y2="-0.5" transform="matrix(0.626059 -0.779776 0.777729 0.628599 29.2842 34.2163)" stroke="black"/>
<line y1="-0.5" x2="4.98256" y2="-0.5" transform="matrix(0.988295 0.152553 -0.151562 0.988448 21.3291 28.8955)" stroke="black"/>
<line y1="-0.5" x2="3.67735" y2="-0.5" transform="matrix(0.488207 0.872728 -0.871334 0.490691 24.7383 19.1094)" stroke="black"/>
<line y1="-0.5" x2="1.8209" y2="-0.5" transform="matrix(0.840474 0.541852 -0.539298 0.842115 22.75 18.1592)" stroke="black"/>
<line y1="-0.5" x2="6.44931" y2="-0.5" transform="matrix(-0.748657 0.662957 -0.660474 -0.750849 24.7373 19.1094)" stroke="black"/>
<line y1="-0.5" x2="5.31837" y2="-0.5" transform="matrix(-0.416629 -0.909077 0.908018 -0.418931 28.9424 34.4905)" stroke="black"/>
<ellipse cx="26.5379" cy="22.3396" rx="0.473485" ry="0.475068" fill="#514715"/>
<ellipse cx="31.5565" cy="20.0593" rx="0.473485" ry="0.475068" fill="#514715"/>
<ellipse cx="32.9774" cy="23.2898" rx="0.473485" ry="0.475067" fill="#514715"/>
<ellipse cx="29.7577" cy="26.3303" rx="0.473485" ry="0.475067" fill="#514715"/>
<ellipse cx="32.0301" cy="30.7959" rx="0.473485" ry="0.475067" fill="#514715"/>
<ellipse cx="26.7274" cy="29.6557" rx="0.473485" ry="0.475067" fill="#514715"/>
<ellipse cx="24.7381" cy="19.1091" rx="0.473485" ry="0.475068" fill="#5A5940"/>
<path d="M37.9697 25.0001C37.9697 29.973 33.9522 34.0015 29 34.0015C24.0477 34.0015 20.0303 29.973 20.0303 25.0001C20.0303 20.0273 24.0477 15.9988 29 15.9988C33.9522 15.9988 37.9697 20.0273 37.9697 25.0001Z" stroke="black"/>
<ellipse cx="22.2761" cy="18.1591" rx="0.94697" ry="0.950136" fill="#5A5940"/>
<ellipse cx="28.905" cy="15.4987" rx="0.94697" ry="0.950136" fill="#514715"/>
<ellipse cx="35.6286" cy="18.1591" rx="0.94697" ry="0.950136" fill="#5A5940"/>
<ellipse cx="38.4694" cy="24.05" rx="0.94697" ry="0.950135" fill="#5A5940"/>
<ellipse cx="37.5222" cy="29.1806" rx="0.94697" ry="0.950135" fill="#5A5940"/>
<ellipse cx="28.905" cy="34.5014" rx="0.94697" ry="0.950136" fill="#514715"/>
<ellipse cx="20.4772" cy="28.8005" rx="0.94697" ry="0.950136" fill="#5A5940"/>
<line y1="-0.5" x2="8.26749" y2="-0.5" transform="matrix(0.80179 0.597606 -0.595041 0.803695 19.9092 24.335)" stroke="black"/>
<ellipse cx="19.53" cy="24.05" rx="0.94697" ry="0.950135" fill="#5A5940"/>
<defs>
<filter id="filter0_di_346_731" x="0" y="0" width="58" height="58" filterUnits="userSpaceOnUse" color-interpolation-filters="sRGB">
<feFlood flood-opacity="0" result="BackgroundImageFix"/>
<feColorMatrix in="SourceAlpha" type="matrix" values="0 0 0 0 0 0 0 0 0 0 0 0 0 0 0 0 0 0 127 0" result="hardAlpha"/>
<feOffset dy="4"/>
<feGaussianBlur stdDeviation="2"/>
<feComposite in2="hardAlpha" operator="out"/>
<feColorMatrix type="matrix" values="0 0 0 0 0 0 0 0 0 0 0 0 0 0 0 0 0 0 0.25 0"/>
<feBlend mode="normal" in2="BackgroundImageFix" result="effect1_dropShadow_346_731"/>
<feBlend mode="normal" in="SourceGraphic" in2="effect1_dropShadow_346_731" result="shape"/>
<feColorMatrix in="SourceAlpha" type="matrix" values="0 0 0 0 0 0 0 0 0 0 0 0 0 0 0 0 0 0 127 0" result="hardAlpha"/>
<feOffset dx="10" dy="10"/>
<feGaussianBlur stdDeviation="2"/>
<feComposite in2="hardAlpha" operator="arithmetic" k2="-1" k3="1"/>
<feColorMatrix type="matrix" values="0 0 0 0 0 0 0 0 0 0 0 0 0 0 0 0 0 0 0.25 0"/>
<feBlend mode="normal" in2="shape" result="effect2_innerShadow_346_731"/>
</filter>
<filter id="filter1_di_346_731" x="6.70801" y="8.27759" width="44.583" height="41.4448" filterUnits="userSpaceOnUse" color-interpolation-filters="sRGB">
<feFlood flood-opacity="0" result="BackgroundImageFix"/>
<feColorMatrix in="SourceAlpha" type="matrix" values="0 0 0 0 0 0 0 0 0 0 0 0 0 0 0 0 0 0 127 0" result="hardAlpha"/>
<feOffset dy="4"/>
<feGaussianBlur stdDeviation="2"/>
<feComposite in2="hardAlpha" operator="out"/>
<feColorMatrix type="matrix" values="0 0 0 0 0 0 0 0 0 0 0 0 0 0 0 0 0 0 0.25 0"/>
<feBlend mode="normal" in2="BackgroundImageFix" result="effect1_dropShadow_346_731"/>
<feBlend mode="normal" in="SourceGraphic" in2="effect1_dropShadow_346_731" result="shape"/>
<feColorMatrix in="SourceAlpha" type="matrix" values="0 0 0 0 0 0 0 0 0 0 0 0 0 0 0 0 0 0 127 0" result="hardAlpha"/>
<feOffset dx="10" dy="10"/>
<feGaussianBlur stdDeviation="2"/>
<feComposite in2="hardAlpha" operator="arithmetic" k2="-1" k3="1"/>
<feColorMatrix type="matrix" values="0 0 0 0 0 0 0 0 0 0 0 0 0 0 0 0 0 0 0.25 0"/>
<feBlend mode="normal" in2="shape" result="effect2_innerShadow_346_731"/>
</filter>
</defs>
</svg>
