<svg width="40" height="36" viewBox="0 0 40 36" fill="none" xmlns="http://www.w3.org/2000/svg">
<path d="M11.375 0C5.11719 0 0 5.05469 0 11.2812C0 24.0508 14.4883 30.7383 19.375 34.7812L20 35.3125L20.625 34.7812C25.5117 30.7383 40 24.0508 40 11.2812C40 5.05469 34.8828 0 28.625 0C25.1484 0 22.0859 1.61328 20 4.0625C17.9141 1.61328 14.8516 0 11.375 0ZM11.375 2C14.6406 2 17.4805 3.65234 19.1562 6.15625L20 7.40625L20.8438 6.15625C22.5195 3.65234 25.3594 2 28.625 2C33.8086 2 38 6.14453 38 11.2812C38 22.1797 25.7383 28.2891 20 32.7812C14.2617 28.2891 2 22.1797 2 11.2812C2 6.14453 6.1875 2 11.375 2Z" fill="black"/>
</svg>
