<svg width="40" height="40" viewBox="0 0 40 40" fill="none" xmlns="http://www.w3.org/2000/svg">
<path d="M15.8485 0C7.10488 0 0 6.94306 0 15.4875C0 24.032 7.10488 30.9751 15.8485 30.9751C19.3081 30.9751 22.5055 29.8861 25.1129 28.0427L37.378 40L40 37.4377L27.8806 25.5658C30.2622 22.8541 31.697 19.3345 31.697 15.4875C31.697 6.94306 24.5921 0 15.8485 0ZM15.8485 1.82206C23.5834 1.82206 29.8325 7.92883 29.8325 15.4875C29.8325 23.0463 23.5834 29.153 15.8485 29.153C8.11362 29.153 1.86453 23.0463 1.86453 15.4875C1.86453 7.92883 8.11362 1.82206 15.8485 1.82206Z" fill="black"/>
</svg>
