<svg width="58" height="58" viewBox="0 0 58 58" fill="none" xmlns="http://www.w3.org/2000/svg">
<g filter="url(#filter0_di_346_683)">
<path d="M4 12.0401L28.6667 0L54 12.0401V41.3043L28.6667 50L4 41.3043V12.0401Z" fill="#FFD700"/>
<path d="M4.5 40.9505V12.3525L28.6696 0.554973L53.5 12.3561V40.9473L28.6689 49.4706L4.5 40.9505Z" stroke="black"/>
</g>
<g filter="url(#filter1_di_346_683)">
<path d="M10.708 15.9701L28.958 8.27783L47.2913 15.9701V36.5387L28.958 41.7226L10.708 36.5387V15.9701Z" fill="#FFD700"/>
<path d="M11.208 36.1609V16.302L28.9584 8.82025L46.7913 16.3026V36.1605L28.9583 41.203L11.208 36.1609Z" stroke="black"/>
</g>
<path d="M27.9136 19.4264C25.5384 21.1295 23.6563 24.0536 26.0413 26.3408C27.7326 26.7143 28.7092 26.4391 30.476 25.5189C31.7601 24.2995 32.0783 23.4619 31.6987 21.5866C31.6462 20.3514 31.5339 19.5112 31.1989 17.7889L27.9136 19.4264Z" fill="#514715" stroke="black"/>
<path d="M33.6081 25.1796C30.8874 24.0687 27.3416 23.9954 26.5451 27.1598C27.0824 28.7639 27.8258 29.4386 29.5437 30.4427C31.2782 30.8902 32.1806 30.7267 33.6414 29.4484C34.7048 28.7714 35.3889 28.247 36.7375 27.0844L33.6081 25.1796Z" fill="#514715" stroke="black"/>
<path d="M23.3013 23.6097C22.1386 26.2477 22.0364 29.6963 25.2832 30.4951C26.9363 29.9846 27.6355 29.2666 28.6807 27.6032C29.154 25.9194 28.9928 25.0403 27.6898 23.6097C27.0019 22.5702 26.468 21.9007 25.2832 20.5801L23.3013 23.6097Z" fill="#5A5940" stroke="black"/>
<line y1="-0.5" x2="6.40292" y2="-0.5" transform="matrix(0.970474 -0.241207 0.239695 0.970848 20.4766 23.8843)" stroke="black"/>
<line y1="-0.5" x2="5.00971" y2="-0.5" transform="matrix(-0.515037 -0.857168 0.855644 -0.517565 31.4854 19.793)" stroke="black"/>
<line y1="-0.5" x2="3.69501" y2="-0.5" transform="matrix(0.92262 -0.38571 0.383523 0.923531 31.5566 20.0596)" stroke="black"/>
<line y1="-0.5" x2="3.55892" y2="-0.5" transform="matrix(0.367633 0.929971 -0.929128 0.369759 31.5566 20.0596)" stroke="black"/>
<line y1="-0.5" x2="5.78217" y2="-0.5" transform="matrix(0.350315 -0.936632 0.93586 0.352371 26.7266 21.8647)" stroke="black"/>
<line y1="-0.5" x2="5.00754" y2="-0.5" transform="matrix(0.628714 0.777637 -0.775579 0.631251 26.5371 22.4351)" stroke="black"/>
<line y1="-0.5" x2="4.11435" y2="-0.5" transform="matrix(-0.690487 0.723345 -0.721038 -0.692896 29.5684 26.3306)" stroke="black"/>
<line y1="-0.5" x2="4.59386" y2="-0.5" transform="matrix(0.989464 0.144779 -0.143836 0.989601 32.9766 23.3853)" stroke="black"/>
<line y1="-0.5" x2="5.01071" y2="-0.5" transform="matrix(0.453574 -0.891219 0.889989 0.455982 32.9766 23.1001)" stroke="black"/>
<line y1="-0.5" x2="4.94134" y2="-0.5" transform="matrix(0.977376 0.211511 -0.210166 0.977666 27.2002 29.751)" stroke="black"/>
<line y1="-0.5" x2="4.27574" y2="-0.5" transform="matrix(0.724888 -0.688867 0.686447 0.72718 29.8516 26.3306)" stroke="black"/>
<line y1="-0.5" x2="6.31526" y2="-0.5" transform="matrix(-0.269909 0.962886 -0.962415 -0.271584 31.5566 19.7744)" stroke="black"/>
<line y1="-0.5" x2="7.02009" y2="-0.5" transform="matrix(0.941654 0.336583 -0.334595 0.942362 30.0254 26.5581)" stroke="black"/>
<line y1="-0.5" x2="5.01071" y2="-0.5" transform="matrix(0.453574 0.891219 -0.889989 0.455982 29.7578 26.3306)" stroke="black"/>
<line y1="-0.5" x2="4.77818" y2="-0.5" transform="matrix(0.971113 -0.238619 0.237121 0.97148 32.0303 30.7012)" stroke="black"/>
<line y1="-0.5" x2="4.38651" y2="-0.5" transform="matrix(0.626059 -0.779776 0.777729 0.628599 29.2842 34.2168)" stroke="black"/>
<line y1="-0.5" x2="4.98256" y2="-0.5" transform="matrix(0.988295 0.152554 -0.151562 0.988448 21.3291 28.896)" stroke="black"/>
<line y1="-0.5" x2="3.67735" y2="-0.5" transform="matrix(0.488207 0.872728 -0.871334 0.490691 24.7383 19.1094)" stroke="black"/>
<line y1="-0.5" x2="1.8209" y2="-0.5" transform="matrix(0.840474 0.541852 -0.539298 0.842115 22.75 18.1592)" stroke="black"/>
<line y1="-0.5" x2="6.44931" y2="-0.5" transform="matrix(-0.748657 0.662957 -0.660474 -0.750849 24.7373 19.1094)" stroke="black"/>
<line y1="-0.5" x2="5.31837" y2="-0.5" transform="matrix(-0.416629 -0.909077 0.908018 -0.418931 28.9434 34.4907)" stroke="black"/>
<ellipse cx="26.5379" cy="22.3398" rx="0.473485" ry="0.475068" fill="#514715"/>
<ellipse cx="31.5565" cy="20.0595" rx="0.473485" ry="0.475068" fill="#514715"/>
<ellipse cx="32.9774" cy="23.29" rx="0.473485" ry="0.475068" fill="#514715"/>
<ellipse cx="29.7577" cy="26.3305" rx="0.473485" ry="0.475068" fill="#514715"/>
<ellipse cx="32.0301" cy="30.7964" rx="0.473485" ry="0.475068" fill="#514715"/>
<ellipse cx="26.7274" cy="29.6562" rx="0.473485" ry="0.475068" fill="#514715"/>
<ellipse cx="24.7381" cy="19.1093" rx="0.473485" ry="0.475068" fill="#5A5940"/>
<path d="M37.9697 25.0004C37.9697 29.9733 33.9522 34.0017 29 34.0017C24.0477 34.0017 20.0303 29.9733 20.0303 25.0004C20.0303 20.0275 24.0477 15.999 29 15.999C33.9522 15.999 37.9697 20.0275 37.9697 25.0004Z" stroke="black"/>
<ellipse cx="22.2761" cy="18.1591" rx="0.94697" ry="0.950136" fill="#5A5940"/>
<ellipse cx="28.905" cy="15.499" rx="0.94697" ry="0.950136" fill="#514715"/>
<ellipse cx="35.6286" cy="18.1591" rx="0.94697" ry="0.950136" fill="#5A5940"/>
<ellipse cx="38.4694" cy="24.0502" rx="0.94697" ry="0.950136" fill="#5A5940"/>
<ellipse cx="37.5222" cy="29.1811" rx="0.94697" ry="0.950136" fill="#5A5940"/>
<ellipse cx="28.905" cy="34.5019" rx="0.94697" ry="0.950136" fill="#514715"/>
<ellipse cx="20.4772" cy="28.8007" rx="0.94697" ry="0.950136" fill="#5A5940"/>
<line y1="-0.5" x2="8.26749" y2="-0.5" transform="matrix(0.80179 0.597606 -0.595041 0.803695 19.9092 24.3354)" stroke="black"/>
<ellipse cx="19.53" cy="24.0502" rx="0.94697" ry="0.950136" fill="#5A5940"/>
<defs>
<filter id="filter0_di_346_683" x="0" y="0" width="58" height="58" filterUnits="userSpaceOnUse" color-interpolation-filters="sRGB">
<feFlood flood-opacity="0" result="BackgroundImageFix"/>
<feColorMatrix in="SourceAlpha" type="matrix" values="0 0 0 0 0 0 0 0 0 0 0 0 0 0 0 0 0 0 127 0" result="hardAlpha"/>
<feOffset dy="4"/>
<feGaussianBlur stdDeviation="2"/>
<feComposite in2="hardAlpha" operator="out"/>
<feColorMatrix type="matrix" values="0 0 0 0 0 0 0 0 0 0 0 0 0 0 0 0 0 0 0.25 0"/>
<feBlend mode="normal" in2="BackgroundImageFix" result="effect1_dropShadow_346_683"/>
<feBlend mode="normal" in="SourceGraphic" in2="effect1_dropShadow_346_683" result="shape"/>
<feColorMatrix in="SourceAlpha" type="matrix" values="0 0 0 0 0 0 0 0 0 0 0 0 0 0 0 0 0 0 127 0" result="hardAlpha"/>
<feOffset dx="10" dy="10"/>
<feGaussianBlur stdDeviation="2"/>
<feComposite in2="hardAlpha" operator="arithmetic" k2="-1" k3="1"/>
<feColorMatrix type="matrix" values="0 0 0 0 0 0 0 0 0 0 0 0 0 0 0 0 0 0 0.25 0"/>
<feBlend mode="normal" in2="shape" result="effect2_innerShadow_346_683"/>
</filter>
<filter id="filter1_di_346_683" x="6.70801" y="8.27783" width="44.583" height="41.4448" filterUnits="userSpaceOnUse" color-interpolation-filters="sRGB">
<feFlood flood-opacity="0" result="BackgroundImageFix"/>
<feColorMatrix in="SourceAlpha" type="matrix" values="0 0 0 0 0 0 0 0 0 0 0 0 0 0 0 0 0 0 127 0" result="hardAlpha"/>
<feOffset dy="4"/>
<feGaussianBlur stdDeviation="2"/>
<feComposite in2="hardAlpha" operator="out"/>
<feColorMatrix type="matrix" values="0 0 0 0 0 0 0 0 0 0 0 0 0 0 0 0 0 0 0.25 0"/>
<feBlend mode="normal" in2="BackgroundImageFix" result="effect1_dropShadow_346_683"/>
<feBlend mode="normal" in="SourceGraphic" in2="effect1_dropShadow_346_683" result="shape"/>
<feColorMatrix in="SourceAlpha" type="matrix" values="0 0 0 0 0 0 0 0 0 0 0 0 0 0 0 0 0 0 127 0" result="hardAlpha"/>
<feOffset dx="10" dy="10"/>
<feGaussianBlur stdDeviation="2"/>
<feComposite in2="hardAlpha" operator="arithmetic" k2="-1" k3="1"/>
<feColorMatrix type="matrix" values="0 0 0 0 0 0 0 0 0 0 0 0 0 0 0 0 0 0 0.25 0"/>
<feBlend mode="normal" in2="shape" result="effect2_innerShadow_346_683"/>
</filter>
</defs>
</svg>
