<svg width="100" height="100" viewBox="0 0 100 100" fill="none" xmlns="http://www.w3.org/2000/svg">
<g clip-path="url(#clip0_76_91)">
<mask id="mask0_76_91" style="mask-type:alpha" maskUnits="userSpaceOnUse" x="0" y="0" width="100" height="100">
<path fill-rule="evenodd" clip-rule="evenodd" d="M0 0H100V100H0V0Z" fill="white"/>
</mask>
<g mask="url(#mask0_76_91)">
<path fill-rule="evenodd" clip-rule="evenodd" d="M50 100C22.5 100 0 77.5001 0 49.7501C0.25 22.2501 22.5 -0.24989 50.25 0.000110269C77.75 0.25011 100 22.5001 100 50.5001C99.75 77.7501 77.5 100 50 100Z" fill="#0090FF"/>
<path fill-rule="evenodd" clip-rule="evenodd" d="M54.75 44.0001L53.25 52.0001L67.5 54.0001L66.5 57.7501L52.5 55.7501C51.5 59.0001 51 62.5001 49.75 65.5001C48.5 69.0001 47.25 72.5001 45.75 75.7501C43.75 80.0001 40.25 83.0001 35.5 83.7501C32.75 84.2501 29.75 84.0001 27.5 82.2501C26.75 81.7501 26 80.7501 26 80.0001C26 79.0001 26.5 77.7501 27.25 77.2501C27.75 77.0001 29 77.2501 29.75 77.5001C30.5 78.2501 31.25 79.2501 31.75 80.2501C33.25 82.2501 35.25 82.5001 37.25 81.0001C39.5 79.0001 40.75 76.2501 41.5 73.5001C43 67.5001 44.5 61.7501 45.75 55.7501V54.7501L32.5 52.7501L33 49.0001L46.75 51.0001L48.5 43.2501L34.25 41.0001L34.75 37.0001L49.5 39.0001C50 37.5001 50.25 36.2501 50.75 35.0001C52 30.5001 53.25 26.0001 56.25 22.0001C59.25 18.0001 62.75 15.5001 68 15.7501C70.25 15.7501 72.5 16.5001 74 18.2501C74.25 18.5001 74.75 19.0001 74.75 19.5001C74.75 20.5001 74.75 21.7501 74 22.5001C73 23.2501 71.75 23.0001 70.75 22.0001C70 21.2501 69.5 20.5001 68.75 19.7501C67.25 17.7501 65 17.5001 63.25 19.2501C62 20.5001 60.75 22.2501 60 24.0001C58.25 29.2501 57 34.7501 55.25 40.2501L69 42.2501L68 46.0001L54.75 44.0001Z" fill="white"/>
</g>
</g>
<defs>
<clipPath id="clip0_76_91">
<rect width="100" height="100" fill="white"/>
</clipPath>
</defs>
</svg>
