<svg width="200" height="200" viewBox="0 0 200 200" fill="none" xmlns="http://www.w3.org/2000/svg">
<path d="M151.042 60.8954C147.396 58.5073 142.708 58.5073 138.542 60.8954L109.375 80.5969L89.5833 93.1342L60.9375 112.836C57.2917 115.224 52.6042 115.224 48.4375 112.836L26.0417 97.3133C22.3958 94.9252 19.7917 90.1491 19.7917 84.776V54.9252C19.7917 50.1491 21.875 45.373 26.0417 42.3879L48.4375 27.4625C52.0833 25.0745 56.7708 25.0745 60.9375 27.4625L83.3333 42.9849C86.9792 45.373 89.5833 50.1491 89.5833 55.5222V75.2237L109.375 62.0894V41.7909C109.375 37.0148 107.292 32.2387 103.125 29.2536L61.4583 1.19388C57.8125 -1.19418 53.125 -1.19418 48.9583 1.19388L6.25 29.8506C2.08333 32.2387 0 37.0148 0 41.7909V97.9103C0 102.686 2.08333 107.463 6.25 110.448L48.4375 138.507C52.0833 140.895 56.7708 140.895 60.9375 138.507L89.5833 119.403L109.375 106.269L138.021 87.164C141.667 84.776 146.354 84.776 150.521 87.164L172.917 102.089C176.562 104.477 179.167 109.254 179.167 114.627V144.477C179.167 149.254 177.083 154.03 172.917 157.015L151.042 171.94C147.396 174.328 142.708 174.328 138.542 171.94L116.146 157.015C112.5 154.627 109.896 149.851 109.896 144.477V125.373L90.1042 138.507V158.209C90.1042 162.985 92.1875 167.761 96.3542 170.746L138.542 198.806C142.188 201.194 146.875 201.194 151.042 198.806L193.229 170.746C196.875 168.358 199.479 163.582 199.479 158.209V101.492C199.479 96.7163 197.396 91.9401 193.229 88.9551L151.042 60.8954Z" fill="#8247E5"/>
</svg>
