<svg width="37" height="29" viewBox="0 0 37 29" fill="none" xmlns="http://www.w3.org/2000/svg">
<path d="M36.9999 3.429C35.6769 4.015 34.2539 4.406 32.7529 4.591C34.2789 3.685 35.4529 2.24 36.0039 0.533C34.5759 1.37 32.9939 1.985 31.3109 2.309C29.9669 0.884 28.0499 0 25.9259 0C21.8459 0 18.5389 3.278 18.5389 7.32C18.5389 7.892 18.6059 8.449 18.7319 8.99C12.5939 8.682 7.14995 5.764 3.50795 1.336C2.86795 2.418 2.50795 3.685 2.50795 5.022C2.50795 7.563 3.80895 9.8 5.79295 11.118C4.58195 11.081 3.44195 10.744 2.44395 10.204C2.44395 10.226 2.44395 10.259 2.44395 10.29C2.44395 13.841 4.99095 16.798 8.36695 17.471C7.74995 17.64 7.09795 17.734 6.42595 17.734C5.94895 17.734 5.48395 17.68 5.03395 17.599C5.97395 20.501 8.70095 22.622 11.9319 22.685C9.40395 24.645 6.21995 25.819 2.75795 25.819C2.15995 25.819 1.57495 25.785 0.996948 25.715C4.26795 27.786 8.15195 29 12.3209 29C25.9059 29 33.3379 17.844 33.3379 8.166C33.3379 7.849 33.3279 7.533 33.3129 7.221C34.7629 6.197 36.0129 4.905 36.9999 3.429Z" fill="#03A9F4"/>
</svg>
