<svg width="36" height="45" viewBox="0 0 36 45" fill="none" xmlns="http://www.w3.org/2000/svg">
<path d="M18 0.516113L17.2812 1.13511L9.28125 8.33795C8.88281 8.69669 8.88281 9.27348 9.28125 9.63222C9.67969 9.99095 10.3203 9.99095 10.7188 9.63222L17 3.97686V28.7929C16.9961 29.1165 17.1836 29.4189 17.4961 29.5842C17.8086 29.746 18.1914 29.746 18.5039 29.5842C18.8164 29.4189 19.0039 29.1165 19 28.7929V3.97686L25.2812 9.63222C25.6797 9.99095 26.3203 9.99095 26.7188 9.63222C27.1172 9.27348 27.1172 8.69669 26.7188 8.33795L18.7188 1.13511L18 0.516113ZM0 14.3872V44.9993H36V14.3872H26C25.6406 14.3837 25.3047 14.5525 25.1211 14.8339C24.9414 15.1152 24.9414 15.4599 25.1211 15.7413C25.3047 16.0226 25.6406 16.1914 26 16.1879H34V43.1986H2V16.1879H10C10.3594 16.1914 10.6953 16.0226 10.8789 15.7413C11.0586 15.4599 11.0586 15.1152 10.8789 14.8339C10.6953 14.5525 10.3594 14.3837 10 14.3872H0Z" fill="#11484F"/>
</svg>
