<svg width="30" height="30" viewBox="0 0 30 30" fill="none" xmlns="http://www.w3.org/2000/svg">
<path d="M5.34375 2.38113C5.31797 2.38582 5.29219 2.39285 5.26875 2.39988C4.98985 2.46316 4.79297 2.71394 4.8 2.99988V8.92488C4.8 11.1678 5.34375 12.5343 6.13125 13.5374C6.82969 14.4257 7.64063 15.0491 8.4 15.8624V17.9999H4.8C4.78125 17.9999 4.7625 17.9999 4.74375 17.9999C4.48594 18.028 4.275 18.2155 4.21875 18.4686L2.41875 26.8686C2.37891 27.0444 2.42344 27.2296 2.53594 27.3725C2.64844 27.5132 2.81954 27.5975 3 27.5999H27C27.1805 27.5975 27.3516 27.5132 27.4641 27.3725C27.5766 27.2296 27.6211 27.0444 27.5813 26.8686L25.7813 18.4686C25.7203 18.1968 25.4789 18.0022 25.2 17.9999H21.6V11.9999C21.5977 11.6694 21.3305 11.4022 21 11.3999H20.9625C20.782 9.86707 19.9453 8.45144 19.0688 7.40613C18.0914 6.24129 14.85 2.60613 14.85 2.60613C14.7164 2.4491 14.5102 2.36941 14.3063 2.39988C14.0883 2.43269 13.9055 2.58269 13.8328 2.79128C13.7578 2.99753 13.8023 3.22957 13.95 3.39363C13.95 3.39363 17.1984 7.08269 18.1313 8.19363C18.8695 9.07254 19.5516 10.2632 19.7438 11.3999H12.6188L12.2438 10.5749C12.1758 10.3546 11.9836 10.1928 11.7563 10.16C11.5266 10.1272 11.2992 10.2303 11.1703 10.4225C11.0438 10.6147 11.0367 10.8632 11.1563 11.0624L13.7063 16.6124V16.6311H13.725C14.1469 17.421 14.5148 18.2483 14.6438 18.8811C14.7727 19.5139 14.7188 19.8303 14.3625 20.0999C13.9453 20.4163 13.4859 20.4889 12.975 20.3436C12.4641 20.1983 11.9109 19.8116 11.4375 19.1436C10.4484 17.7444 9.73125 15.5811 9.73125 15.5811L9.69375 15.4686L9.61875 15.3749C9.59532 15.3468 9.56719 15.328 9.54375 15.2999C9.4875 15.171 9.38907 15.0632 9.2625 14.9999C8.43282 14.1163 7.62891 13.5186 7.06875 12.8061C6.42891 11.9928 6 10.985 6 8.92488V2.99988C6.00704 2.82644 5.93672 2.66003 5.8125 2.54285C5.68594 2.42332 5.51485 2.36472 5.34375 2.38113ZM13.1813 12.5999H20.4V22.7999H9.6V18.3749C9.84844 18.8647 10.1273 19.3616 10.4625 19.8374C11.0648 20.6882 11.8266 21.2718 12.6563 21.5061C13.4859 21.7405 14.3836 21.5928 15.0938 21.0561C15.8672 20.4702 16.0008 19.4999 15.825 18.6374C15.6516 17.7866 15.225 16.9171 14.7938 16.1061L14.775 16.0686L13.1813 12.5999ZM5.2875 19.1999H8.4V21.5999H7.8C7.14375 21.5999 6.6 22.1436 6.6 22.7999C6.6 23.4561 7.14375 23.9999 7.8 23.9999H22.2C22.8563 23.9999 23.4 23.4561 23.4 22.7999C23.4 22.1436 22.8563 21.5999 22.2 21.5999H21.6V19.1999H24.7125L26.2688 26.3999H3.73125L5.2875 19.1999Z" fill="black"/>
</svg>
