<svg width="48" height="48" viewBox="0 0 48 48" fill="none" xmlns="http://www.w3.org/2000/svg">
<path d="M14.9941 5C13.4294 5 12.0328 6.05546 11.6191 7.57227C11.2687 8.85551 10.3297 11.0238 10.127 13.1562C10.0652 13.3023 10.0269 13.4572 10.0137 13.6152C10.0137 13.6152 9.96806 14.1996 9.98438 14.918C10.0006 15.634 10.0148 16.4688 10.4063 17.3711C10.7018 18.1001 11.7641 20.3638 12.9121 22.8418C13.4229 23.9444 13.5661 24.2693 14 25.2148V40H5.5C5.30123 39.9972 5.10389 40.0339 4.91944 40.108C4.73498 40.1822 4.5671 40.2922 4.42555 40.4318C4.28399 40.5713 4.17159 40.7376 4.09487 40.921C4.01815 41.1044 3.97864 41.3012 3.97864 41.5C3.97864 41.6988 4.01815 41.8956 4.09487 42.079C4.17159 42.2624 4.28399 42.4287 4.42555 42.5682C4.5671 42.7078 4.73498 42.8178 4.91944 42.892C5.10389 42.9661 5.30123 43.0028 5.5 43H42.5C42.6988 43.0028 42.8961 42.9661 43.0806 42.892C43.265 42.8178 43.4329 42.7078 43.5745 42.5682C43.716 42.4287 43.8284 42.2624 43.9051 42.079C43.9819 41.8956 44.0214 41.6988 44.0214 41.5C44.0214 41.3012 43.9819 41.1044 43.9051 40.921C43.8284 40.7376 43.716 40.5713 43.5745 40.4318C43.4329 40.2922 43.265 40.1822 43.0806 40.108C42.8961 40.0339 42.6988 39.9972 42.5 40H34V30.8672C34.3049 30.2902 38.0007 23.294 38.9121 21.2871C38.9148 21.2806 38.9174 21.2741 38.9199 21.2676C39.6294 19.6453 39.6613 17.938 38.9883 16.5078C38.3152 15.0776 37.1524 13.9348 35.6719 12.6289C35.6616 12.6196 35.6512 12.6105 35.6406 12.6016C33.2512 10.6087 29.753 7.13212 27.9531 5.73438C27.9531 5.73372 27.9531 5.73307 27.9531 5.73242C27.3401 5.25737 26.5837 5 25.8086 5H14.9941ZM14.9941 8H25.8086C25.9215 8 26.0263 8.03651 26.1152 8.10547C27.4349 9.13065 31.1012 12.7175 33.6875 14.8789C35.073 16.101 35.935 17.0659 36.2734 17.7852C36.6106 18.5017 36.6388 18.9874 36.1738 20.0547C35.8515 20.7634 35.0143 22.331 34 24.293V18.5C34 18.1022 33.8419 17.7207 33.5606 17.4394C33.2793 17.1581 32.8978 17 32.5 17H21C20.7535 17 20.5108 17.0608 20.2933 17.1769C20.0759 17.293 19.8904 17.461 19.7533 17.6658C19.6162 17.8707 19.5317 18.1062 19.5073 18.3515C19.4829 18.5968 19.5193 18.8444 19.6133 19.0723C20.8614 22.0965 22.1527 24.9157 22.3477 25.3984C22.8204 26.5719 22.2683 27.8647 21.0938 28.3379C19.9203 28.8107 18.6275 28.2585 18.1543 27.084C17.8659 26.3686 16.7893 24.074 15.6348 21.582C14.4803 19.09 13.2474 16.4013 13.1738 16.2188C13.1688 16.2057 13.1636 16.1926 13.1582 16.1797C13.1214 16.0953 12.9971 15.4077 12.9844 14.8496C12.973 14.349 12.9965 14.0285 13.002 13.9492C13.0109 13.8884 13.0161 13.8271 13.0176 13.7656C13.0468 12.6238 14.0119 10.1989 14.5137 8.36133C14.574 8.14014 14.7568 8 14.9941 8ZM23.2813 20H31V30.5V40H17V30.3379C18.4361 31.4688 20.4107 31.848 22.2148 31.1211C24.8923 30.0423 26.2101 26.9559 25.1309 24.2773C25.1302 24.2767 25.1296 24.276 25.1289 24.2754C24.8979 23.7034 24.0283 21.7173 23.2813 20Z" fill="black"/>
</svg>
